<svg xmlns="http://www.w3.org/2000/svg" xmlns:xlink="http://www.w3.org/1999/xlink" xmlns:serif="http://www.serif.com/" viewBox="0 0 48 60" version="1.1" xml:space="preserve" style="" x="0px" y="0px" fill-rule="evenodd" clip-rule="evenodd" stroke-linejoin="round" stroke-miterlimit="2">
<path d="M29.012,2.957c-0.07,-0.001 -0.141,0.006 -0.211,0.02c-2.286,0.445 -3.703,1.379 -4.59,2.427c-1.331,1.574 -1.477,3.459 -1.397,4.662c-1.456,-0.707 -3.088,-1.109 -4.814,-1.109c-6.094,0 -11.043,4.949 -11.043,11.043c0,3.961 2.245,14.437 5.537,20.365c0.907,1.633 1.906,2.931 2.938,3.719c0.828,0.632 1.693,0.959 2.568,0.959c2.197,-0 4.276,-1.449 6,-2.74c1.724,1.291 3.803,2.74 6,2.74c0.875,-0 1.74,-0.327 2.568,-0.959c1.032,-0.788 2.031,-2.086 2.938,-3.719c3.292,-5.928 5.537,-16.404 5.537,-20.365c-0,-6.094 -4.949,-11.043 -11.043,-11.043c-1.838,0 -3.568,0.456 -5.094,1.252c-0.102,-0.764 -0.127,-2.246 0.897,-3.457c0.651,-0.77 1.718,-1.404 3.396,-1.729c0.564,-0.11 0.933,-0.657 0.824,-1.222c-0.096,-0.494 -0.527,-0.839 -1.011,-0.844Zm-11.012,8.086c2.015,-0 3.875,0.666 5.373,1.791c0.371,0.279 0.883,0.279 1.254,-0c1.498,-1.125 3.358,-1.791 5.373,-1.791c4.944,-0 8.957,4.013 8.957,8.957c0,3.765 -2.144,13.72 -5.273,19.354c-0.629,1.133 -1.293,2.085 -1.997,2.748c-0.547,0.516 -1.098,0.855 -1.687,0.855c-0.943,0 -1.843,-0.387 -2.689,-0.885c-0.975,-0.572 -1.877,-1.3 -2.684,-1.906c-0.371,-0.279 -0.883,-0.279 -1.254,0c-0.807,0.606 -1.709,1.334 -2.684,1.906c-0.846,0.498 -1.746,0.885 -2.689,0.885c-0.589,0 -1.141,-0.339 -1.688,-0.855c-0.704,-0.663 -1.367,-1.615 -1.996,-2.748c-3.129,-5.634 -5.273,-15.589 -5.273,-19.354c-0,-4.944 4.013,-8.957 8.957,-8.957Zm1.039,1.916c-0.035,-0.001 -0.071,-0 -0.107,0.002c-2.555,0.166 -4.147,0.959 -5.149,1.812c-1.684,1.433 -1.818,3.12 -1.818,3.12c-0.06,0.572 0.356,1.083 0.928,1.142c0.572,0.06 1.083,-0.356 1.142,-0.928c0,0 0.438,-2.768 5.033,-3.068c0.573,-0.037 1.009,-0.533 0.971,-1.107c-0.035,-0.538 -0.472,-0.954 -1,-0.973Z"/>
</svg>