<svg xmlns="http://www.w3.org/2000/svg" xmlns:xlink="http://www.w3.org/1999/xlink" xml:space="preserve" version="1.1" style="shape-rendering:geometricPrecision;text-rendering:geometricPrecision;image-rendering:optimizeQuality;" viewBox="0 0 333.33 416.66249999999997" x="0px" y="0px" fill-rule="evenodd" clip-rule="evenodd">
<defs>
<style type="text/css">
   
    .fil0 {fill:black;fill-rule:nonzero}
   
</style>
</defs>
<g>
<path class="fil0" d="M88.48 151.8l-36.54 -36.48c-2.57,-2.57 -4.54,-5.46 -5.85,-8.65 -1.34,-3.19 -2.01,-6.62 -2.01,-10.25l0 -60.92c0,-7.34 3,-14.01 7.83,-18.84 4.83,-4.86 11.52,-7.86 18.87,-7.86l22.37 0 147.02 0 22.37 0c7.36,0 14.04,3 18.87,7.83 4.83,4.83 7.83,11.51 7.83,18.87l0 60.92c0,3.63 -0.67,7.06 -2,10.25l-0.18 0.4c-1.32,3.03 -3.22,5.78 -5.69,8.24l-36.55 36.49c16.11,18.32 25.88,42.34 25.88,68.65 0,28.71 -11.65,54.72 -30.48,73.55 -18.86,18.85 -44.87,30.5 -73.58,30.5 -28.71,0 -54.72,-11.65 -73.55,-30.48 -18.85,-18.86 -30.5,-44.87 -30.5,-73.58 0,-26.31 9.77,-50.33 25.87,-68.66zm84.15 27.41l9.74 19.63 21.7 3.2c3.63,0.53 6.15,3.92 5.62,7.55 -0.24,1.6 -1.02,2.99 -2.15,3.99l-15.46 15.13 3.67 21.65c0.6,3.62 -1.85,7.06 -5.47,7.66 -1.63,0.27 -3.23,-0.08 -4.54,-0.87l-19.07 -9.98 -19.45 10.17c-3.25,1.69 -7.26,0.43 -8.96,-2.81 -0.69,-1.33 -0.89,-2.79 -0.66,-4.16l3.65 -21.65 -15.68 -15.35c-2.61,-2.57 -2.65,-6.79 -0.08,-9.4 1.06,-1.07 2.39,-1.71 3.78,-1.91l21.7 -3.21 9.74 -19.63c1.62,-3.29 5.61,-4.64 8.9,-3.02 1.37,0.67 2.39,1.75 3.02,3.02zm-0.63 28.65l-5.33 -10.75 -5.19 10.46c-0.89,2.04 -2.78,3.59 -5.14,3.94l-11.87 1.75 8.39 8.21c1.63,1.47 2.49,3.71 2.11,6.03l-2.01 11.87 10.65 -5.57c1.86,-0.96 4.15,-1.04 6.14,0l10.65 5.57 -2.01 -11.87c-0.33,-2.07 0.3,-4.26 1.9,-5.83l8.59 -8.41 -11.87 -1.75c-2.09,-0.32 -3.99,-1.61 -5,-3.65zm-72.18 -185.71l0 61.43c0,3.68 -2.98,6.67 -6.67,6.67 -3.68,0 -6.67,-2.98 -6.67,-6.67l0 -61.43 -15.71 0c-3.68,0 -7.02,1.5 -9.44,3.93 -2.42,2.41 -3.93,5.76 -3.93,9.44l0 60.92c0,1.89 0.32,3.62 0.96,5.15 0.63,1.56 1.62,3 2.94,4.32l36.57 36.51c18.34,-16.18 42.42,-26 68.78,-26 26.36,0 50.44,9.82 68.78,26l36.57 -36.51c1.25,-1.25 2.2,-2.6 2.83,-4.04l0.11 -0.28c0.63,-1.53 0.96,-3.26 0.96,-5.15l0 -60.92c0,-3.67 -1.5,-7.02 -3.93,-9.44 -2.42,-2.42 -5.77,-3.93 -9.44,-3.93l-15.71 0 0 61.43c0,3.68 -2.98,6.67 -6.67,6.67 -3.68,0 -6.67,-2.98 -6.67,-6.67l0 -61.43 -133.69 0zm66.85 122.85c20.8,0 39.67,8.45 53.33,22.11l0.04 0.04c13.65,13.67 22.09,32.52 22.09,53.31 0,20.8 -8.45,39.67 -22.11,53.33l-0.04 0.04c-13.67,13.65 -32.52,22.09 -53.32,22.09 -20.8,0 -39.67,-8.45 -53.33,-22.11l-0.04 -0.04c-13.65,-13.67 -22.09,-32.52 -22.09,-53.32 0,-20.8 8.45,-39.67 22.11,-53.33l0.04 -0.04c13.67,-13.65 32.52,-22.09 53.32,-22.09zm43.95 31.52c-11.23,-11.24 -26.77,-18.19 -43.95,-18.19 -17.18,0 -32.72,6.95 -43.94,18.17 -11.25,11.25 -18.2,26.79 -18.2,43.96 0,17.18 6.95,32.72 18.17,43.94 11.25,11.25 26.79,18.2 43.96,18.2 17.18,0 32.72,-6.95 43.94,-18.17 11.25,-11.25 18.2,-26.79 18.2,-43.96 0,-17.17 -6.95,-32.71 -18.19,-43.95zm20.21 -20.21c-16.41,-16.41 -39.09,-26.56 -64.16,-26.56 -24.89,0 -47.44,10.02 -63.83,26.23l-0.32 0.34c-16.41,16.41 -26.57,39.1 -26.57,64.15 0,25.06 10.15,47.75 26.56,64.17 16.41,16.41 39.1,26.56 64.17,26.56 25.06,0 47.75,-10.15 64.17,-26.56 16.41,-16.41 26.56,-39.1 26.56,-64.17 0,-25.05 -10.16,-47.74 -26.57,-64.16z"/>
</g>
</svg>