<svg xmlns="http://www.w3.org/2000/svg" xmlns:xlink="http://www.w3.org/1999/xlink" xml:space="preserve" style="shape-rendering:geometricPrecision;text-rendering:geometricPrecision;image-rendering:optimizeQuality;" viewBox="0 0 6827 8533.75" x="0px" y="0px" fill-rule="evenodd" clip-rule="evenodd"><defs><style type="text/css">
   
    .fil1 {fill:none}
    .fil0 {fill:black}
   
  </style>
  </defs><g>
  <path class="fil0" d="M3316 3571c-159,-25 -306,-99 -422,-215 -144,-144 -224,-338 -224,-541 0,-204 80,-397 224,-541 115,-115 263,-190 422,-215l0 -1086c0,-66 53,-119 119,-119 66,0 119,53 119,119l0 1086c159,25 306,99 422,215 144,144 224,338 224,541 0,204 -80,397 -224,541 -115,116 -263,190 -422,215l0 2283c0,66 -53,119 -119,119 -66,0 -119,-53 -119,-119l0 -2283zm-1813 1153c-171,-20 -330,-96 -453,-219 -144,-144 -224,-338 -224,-541 0,-204 80,-397 224,-541 123,-123 282,-200 453,-219l0 -2230c0,-66 53,-119 119,-119 66,0 119,53 119,119l0 2240c147,29 283,101 390,209 144,144 224,338 224,541 0,204 -80,397 -224,541 -108,108 -243,180 -390,209l0 1140c0,66 -53,119 -119,119 -66,0 -119,-53 -119,-119l0 -1130zm3625 -2c-163,-23 -315,-98 -434,-217 -144,-144 -224,-338 -224,-541 0,-204 80,-397 224,-541 118,-118 270,-194 434,-217l0 -2233c0,-66 53,-119 119,-119 66,0 119,53 119,119l0 2237c154,27 297,100 410,213 144,144 224,338 224,541 0,204 -80,397 -224,541 -113,113 -256,186 -410,213l0 1136c0,66 -53,119 -119,119 -66,0 -119,-53 -119,-119l0 -1132z"/>
  </g>
  <rect class="fil1" width="6827" height="6827"/>
  </svg>